<?xml version="1.0" encoding="UTF-8" standalone="no"?><svg xmlns="http://www.w3.org/2000/svg" xmlns:xlink="http://www.w3.org/1999/xlink" contentScriptType="application/ecmascript" contentStyleType="text/css" height="634px" preserveAspectRatio="none" style="width:1103px;height:634px;" version="1.1" viewBox="0 0 1103 634" width="1103px" zoomAndPan="magnify"><defs><filter height="300%" id="f1ozwebnmnnfp8" width="300%" x="-1" y="-1"><feGaussianBlur result="blurOut" stdDeviation="2.0"/><feColorMatrix in="blurOut" result="blurOut2" type="matrix" values="0 0 0 0 0 0 0 0 0 0 0 0 0 0 0 0 0 0 .4 0"/><feOffset dx="4.0" dy="4.0" in="blurOut2" result="blurOut3"/><feBlend in="SourceGraphic" in2="blurOut3" mode="normal"/></filter></defs><g><text fill="#000000" font-family="sans-serif" font-size="14" font-weight="bold" lengthAdjust="spacingAndGlyphs" textLength="250" x="427.75" y="23.5352">"Messages - Webhook - database"</text><line style="stroke: #A80036; stroke-width: 1.0; stroke-dasharray: 5.0,5.0;" x1="29" x2="29" y1="116.9766" y2="547.3242"/><line style="stroke: #A80036; stroke-width: 1.0; stroke-dasharray: 5.0,5.0;" x1="201.5" x2="201.5" y1="116.9766" y2="547.3242"/><line style="stroke: #A80036; stroke-width: 1.0; stroke-dasharray: 5.0,5.0;" x1="380" x2="380" y1="116.9766" y2="547.3242"/><line style="stroke: #A80036; stroke-width: 1.0; stroke-dasharray: 5.0,5.0;" x1="495" x2="495" y1="116.9766" y2="547.3242"/><line style="stroke: #A80036; stroke-width: 1.0; stroke-dasharray: 5.0,5.0;" x1="591" x2="591" y1="116.9766" y2="547.3242"/><line style="stroke: #A80036; stroke-width: 1.0; stroke-dasharray: 5.0,5.0;" x1="733" x2="733" y1="116.9766" y2="547.3242"/><line style="stroke: #A80036; stroke-width: 1.0; stroke-dasharray: 5.0,5.0;" x1="874" x2="874" y1="116.9766" y2="547.3242"/><line style="stroke: #A80036; stroke-width: 1.0; stroke-dasharray: 5.0,5.0;" x1="963" x2="963" y1="116.9766" y2="547.3242"/><line style="stroke: #A80036; stroke-width: 1.0; stroke-dasharray: 5.0,5.0;" x1="1063.5" x2="1063.5" y1="116.9766" y2="547.3242"/><text fill="#000000" font-family="sans-serif" font-size="14" lengthAdjust="spacingAndGlyphs" textLength="36" x="8" y="114.0234">Input</text><ellipse cx="29" cy="43.4883" fill="#FEFECE" filter="url(#f1ozwebnmnnfp8)" rx="8" ry="8" style="stroke: #A80036; stroke-width: 2.0;"/><path d="M29,51.4883 L29,78.4883 M16,59.4883 L42,59.4883 M29,78.4883 L16,93.4883 M29,78.4883 L42,93.4883 " fill="none" filter="url(#f1ozwebnmnnfp8)" style="stroke: #A80036; stroke-width: 2.0;"/><text fill="#000000" font-family="sans-serif" font-size="14" lengthAdjust="spacingAndGlyphs" textLength="36" x="8" y="559.8594">Input</text><ellipse cx="29" cy="572.8125" fill="#FEFECE" filter="url(#f1ozwebnmnnfp8)" rx="8" ry="8" style="stroke: #A80036; stroke-width: 2.0;"/><path d="M29,580.8125 L29,607.8125 M16,588.8125 L42,588.8125 M29,607.8125 L16,622.8125 M29,607.8125 L42,622.8125 " fill="none" filter="url(#f1ozwebnmnnfp8)" style="stroke: #A80036; stroke-width: 2.0;"/><text fill="#000000" font-family="sans-serif" font-size="14" lengthAdjust="spacingAndGlyphs" textLength="107" x="145.5" y="114.0234">WebhookServer</text><path d="M181.5,72.4883 L181.5,96.4883 M181.5,84.4883 L198.5,84.4883 " fill="none" filter="url(#f1ozwebnmnnfp8)" style="stroke: #A80036; stroke-width: 2.0;"/><ellipse cx="210.5" cy="84.4883" fill="#FEFECE" filter="url(#f1ozwebnmnnfp8)" rx="12" ry="12" style="stroke: #A80036; stroke-width: 2.0;"/><text fill="#000000" font-family="sans-serif" font-size="14" lengthAdjust="spacingAndGlyphs" textLength="107" x="145.5" y="559.8594">WebhookServer</text><path d="M181.5,566.8125 L181.5,590.8125 M181.5,578.8125 L198.5,578.8125 " fill="none" filter="url(#f1ozwebnmnnfp8)" style="stroke: #A80036; stroke-width: 2.0;"/><ellipse cx="210.5" cy="578.8125" fill="#FEFECE" filter="url(#f1ozwebnmnnfp8)" rx="12" ry="12" style="stroke: #A80036; stroke-width: 2.0;"/><text fill="#000000" font-family="sans-serif" font-size="14" lengthAdjust="spacingAndGlyphs" textLength="116" x="319" y="114.0234">Pokemon Service</text><ellipse cx="380" cy="84.4883" fill="#FEFECE" filter="url(#f1ozwebnmnnfp8)" rx="12" ry="12" style="stroke: #A80036; stroke-width: 2.0;"/><polygon fill="#A80036" points="376,72.4883,382,67.4883,380,72.4883,382,77.4883,376,72.4883" style="stroke: #A80036; stroke-width: 1.0;"/><text fill="#000000" font-family="sans-serif" font-size="14" lengthAdjust="spacingAndGlyphs" textLength="116" x="319" y="559.8594">Pokemon Service</text><ellipse cx="380" cy="578.8125" fill="#FEFECE" filter="url(#f1ozwebnmnnfp8)" rx="12" ry="12" style="stroke: #A80036; stroke-width: 2.0;"/><polygon fill="#A80036" points="376,566.8125,382,561.8125,380,566.8125,382,571.8125,376,566.8125" style="stroke: #A80036; stroke-width: 1.0;"/><text fill="#000000" font-family="sans-serif" font-size="14" lengthAdjust="spacingAndGlyphs" textLength="82" x="451" y="114.0234">Raid Service</text><ellipse cx="495" cy="84.4883" fill="#FEFECE" filter="url(#f1ozwebnmnnfp8)" rx="12" ry="12" style="stroke: #A80036; stroke-width: 2.0;"/><polygon fill="#A80036" points="491,72.4883,497,67.4883,495,72.4883,497,77.4883,491,72.4883" style="stroke: #A80036; stroke-width: 1.0;"/><text fill="#000000" font-family="sans-serif" font-size="14" lengthAdjust="spacingAndGlyphs" textLength="82" x="451" y="559.8594">Raid Service</text><ellipse cx="495" cy="578.8125" fill="#FEFECE" filter="url(#f1ozwebnmnnfp8)" rx="12" ry="12" style="stroke: #A80036; stroke-width: 2.0;"/><polygon fill="#A80036" points="491,566.8125,497,561.8125,495,566.8125,497,571.8125,491,566.8125" style="stroke: #A80036; stroke-width: 1.0;"/><text fill="#000000" font-family="sans-serif" font-size="14" lengthAdjust="spacingAndGlyphs" textLength="78" x="549" y="114.0234">Egg Service</text><ellipse cx="591" cy="84.4883" fill="#FEFECE" filter="url(#f1ozwebnmnnfp8)" rx="12" ry="12" style="stroke: #A80036; stroke-width: 2.0;"/><polygon fill="#A80036" points="587,72.4883,593,67.4883,591,72.4883,593,77.4883,587,72.4883" style="stroke: #A80036; stroke-width: 1.0;"/><text fill="#000000" font-family="sans-serif" font-size="14" lengthAdjust="spacingAndGlyphs" textLength="78" x="549" y="559.8594">Egg Service</text><ellipse cx="591" cy="578.8125" fill="#FEFECE" filter="url(#f1ozwebnmnnfp8)" rx="12" ry="12" style="stroke: #A80036; stroke-width: 2.0;"/><polygon fill="#A80036" points="587,566.8125,593,561.8125,591,566.8125,593,571.8125,587,566.8125" style="stroke: #A80036; stroke-width: 1.0;"/><text fill="#000000" font-family="sans-serif" font-size="14" lengthAdjust="spacingAndGlyphs" textLength="175" x="643" y="114.0234">PokemonWithSpawnpoint</text><ellipse cx="733.5" cy="84.4883" fill="#FEFECE" filter="url(#f1ozwebnmnnfp8)" rx="12" ry="12" style="stroke: #A80036; stroke-width: 2.0;"/><line style="stroke: #A80036; stroke-width: 2.0;" x1="721.5" x2="745.5" y1="98.4883" y2="98.4883"/><text fill="#000000" font-family="sans-serif" font-size="14" lengthAdjust="spacingAndGlyphs" textLength="175" x="643" y="559.8594">PokemonWithSpawnpoint</text><ellipse cx="733.5" cy="578.8125" fill="#FEFECE" filter="url(#f1ozwebnmnnfp8)" rx="12" ry="12" style="stroke: #A80036; stroke-width: 2.0;"/><line style="stroke: #A80036; stroke-width: 2.0;" x1="721.5" x2="745.5" y1="592.8125" y2="592.8125"/><text fill="#000000" font-family="sans-serif" font-size="14" lengthAdjust="spacingAndGlyphs" textLength="75" x="834" y="114.0234">RaidAtGym</text><ellipse cx="874.5" cy="84.4883" fill="#FEFECE" filter="url(#f1ozwebnmnnfp8)" rx="12" ry="12" style="stroke: #A80036; stroke-width: 2.0;"/><line style="stroke: #A80036; stroke-width: 2.0;" x1="862.5" x2="886.5" y1="98.4883" y2="98.4883"/><text fill="#000000" font-family="sans-serif" font-size="14" lengthAdjust="spacingAndGlyphs" textLength="75" x="834" y="559.8594">RaidAtGym</text><ellipse cx="874.5" cy="578.8125" fill="#FEFECE" filter="url(#f1ozwebnmnnfp8)" rx="12" ry="12" style="stroke: #A80036; stroke-width: 2.0;"/><line style="stroke: #A80036; stroke-width: 2.0;" x1="862.5" x2="886.5" y1="592.8125" y2="592.8125"/><text fill="#000000" font-family="sans-serif" font-size="14" lengthAdjust="spacingAndGlyphs" textLength="71" x="925" y="114.0234">EggAtGym</text><ellipse cx="963.5" cy="84.4883" fill="#FEFECE" filter="url(#f1ozwebnmnnfp8)" rx="12" ry="12" style="stroke: #A80036; stroke-width: 2.0;"/><line style="stroke: #A80036; stroke-width: 2.0;" x1="951.5" x2="975.5" y1="98.4883" y2="98.4883"/><text fill="#000000" font-family="sans-serif" font-size="14" lengthAdjust="spacingAndGlyphs" textLength="71" x="925" y="559.8594">EggAtGym</text><ellipse cx="963.5" cy="578.8125" fill="#FEFECE" filter="url(#f1ozwebnmnnfp8)" rx="12" ry="12" style="stroke: #A80036; stroke-width: 2.0;"/><line style="stroke: #A80036; stroke-width: 2.0;" x1="951.5" x2="975.5" y1="592.8125" y2="592.8125"/><text fill="#000000" font-family="sans-serif" font-size="14" lengthAdjust="spacingAndGlyphs" textLength="62" x="1029.5" y="114.0234">database</text><path d="M1045.5,64.4883 C1045.5,54.4883 1063.5,54.4883 1063.5,54.4883 C1063.5,54.4883 1081.5,54.4883 1081.5,64.4883 L1081.5,90.4883 C1081.5,100.4883 1063.5,100.4883 1063.5,100.4883 C1063.5,100.4883 1045.5,100.4883 1045.5,90.4883 L1045.5,64.4883 " fill="#FEFECE" filter="url(#f1ozwebnmnnfp8)" style="stroke: #000000; stroke-width: 1.5;"/><path d="M1045.5,64.4883 C1045.5,74.4883 1063.5,74.4883 1063.5,74.4883 C1063.5,74.4883 1081.5,74.4883 1081.5,64.4883 " fill="none" style="stroke: #000000; stroke-width: 1.5;"/><text fill="#000000" font-family="sans-serif" font-size="14" lengthAdjust="spacingAndGlyphs" textLength="62" x="1029.5" y="559.8594">database</text><path d="M1045.5,572.8125 C1045.5,562.8125 1063.5,562.8125 1063.5,562.8125 C1063.5,562.8125 1081.5,562.8125 1081.5,572.8125 L1081.5,598.8125 C1081.5,608.8125 1063.5,608.8125 1063.5,608.8125 C1063.5,608.8125 1045.5,608.8125 1045.5,598.8125 L1045.5,572.8125 " fill="#FEFECE" filter="url(#f1ozwebnmnnfp8)" style="stroke: #000000; stroke-width: 1.5;"/><path d="M1045.5,572.8125 C1045.5,582.8125 1063.5,582.8125 1063.5,582.8125 C1063.5,582.8125 1081.5,582.8125 1081.5,572.8125 " fill="none" style="stroke: #000000; stroke-width: 1.5;"/><polygon fill="#A80036" points="190,144.2871,200,148.2871,190,152.2871,194,148.2871" style="stroke: #A80036; stroke-width: 1.0;"/><line style="stroke: #A80036; stroke-width: 1.0;" x1="29" x2="196" y1="148.2871" y2="148.2871"/><text fill="#000000" font-family="sans-serif" font-size="13" lengthAdjust="spacingAndGlyphs" textLength="149" x="36" y="143.5449">incoming json message</text><polygon fill="#A80036" points="1051.5,173.5977,1061.5,177.5977,1051.5,181.5977,1055.5,177.5977" style="stroke: #A80036; stroke-width: 1.0;"/><line style="stroke: #A80036; stroke-width: 1.0; stroke-dasharray: 2.0,2.0;" x1="202" x2="1057.5" y1="177.5977" y2="177.5977"/><text fill="#000000" font-family="sans-serif" font-size="13" lengthAdjust="spacingAndGlyphs" textLength="446" x="209" y="172.8555">transform every incoming message to java entity and write to database</text><polygon fill="#A80036" points="721.5,202.9082,731.5,206.9082,721.5,210.9082,725.5,206.9082" style="stroke: #A80036; stroke-width: 1.0;"/><line style="stroke: #A80036; stroke-width: 1.0;" x1="202" x2="727.5" y1="206.9082" y2="206.9082"/><text fill="#000000" font-family="sans-serif" font-size="13" lengthAdjust="spacingAndGlyphs" textLength="148" x="209" y="202.166">transform to java entity</text><polygon fill="#A80036" points="1051.5,232.2188,1061.5,236.2188,1051.5,240.2188,1055.5,236.2188" style="stroke: #A80036; stroke-width: 1.0;"/><line style="stroke: #A80036; stroke-width: 1.0;" x1="733.5" x2="1057.5" y1="236.2188" y2="236.2188"/><text fill="#000000" font-family="sans-serif" font-size="13" lengthAdjust="spacingAndGlyphs" textLength="76" x="740.5" y="231.4766">To database</text><polygon fill="#A80036" points="368,261.5293,378,265.5293,368,269.5293,372,265.5293" style="stroke: #A80036; stroke-width: 1.0;"/><line style="stroke: #A80036; stroke-width: 1.0;" x1="202" x2="374" y1="265.5293" y2="265.5293"/><text fill="#000000" font-family="sans-serif" font-size="13" lengthAdjust="spacingAndGlyphs" textLength="154" x="209" y="260.7871">triggerPokemonMessage</text><polygon fill="#A80036" points="391,290.8398,381,294.8398,391,298.8398,387,294.8398" style="stroke: #A80036; stroke-width: 1.0;"/><polygon fill="#A80036" points="1051.5,290.8398,1061.5,294.8398,1051.5,298.8398,1055.5,294.8398" style="stroke: #A80036; stroke-width: 1.0;"/><line style="stroke: #A80036; stroke-width: 1.0;" x1="385" x2="1057.5" y1="294.8398" y2="294.8398"/><text fill="#000000" font-family="sans-serif" font-size="13" lengthAdjust="spacingAndGlyphs" textLength="110" x="397" y="290.0977">from/to database</text><polygon fill="#A80036" points="862.5,320.1504,872.5,324.1504,862.5,328.1504,866.5,324.1504" style="stroke: #A80036; stroke-width: 1.0;"/><line style="stroke: #A80036; stroke-width: 1.0;" x1="202" x2="868.5" y1="324.1504" y2="324.1504"/><text fill="#000000" font-family="sans-serif" font-size="13" lengthAdjust="spacingAndGlyphs" textLength="148" x="209" y="319.4082">transform to java entity</text><polygon fill="#A80036" points="1051.5,349.4609,1061.5,353.4609,1051.5,357.4609,1055.5,353.4609" style="stroke: #A80036; stroke-width: 1.0;"/><line style="stroke: #A80036; stroke-width: 1.0;" x1="874.5" x2="1057.5" y1="353.4609" y2="353.4609"/><text fill="#000000" font-family="sans-serif" font-size="13" lengthAdjust="spacingAndGlyphs" textLength="76" x="881.5" y="348.7188">To database</text><polygon fill="#A80036" points="483,378.7715,493,382.7715,483,386.7715,487,382.7715" style="stroke: #A80036; stroke-width: 1.0;"/><line style="stroke: #A80036; stroke-width: 1.0;" x1="202" x2="489" y1="382.7715" y2="382.7715"/><text fill="#000000" font-family="sans-serif" font-size="13" lengthAdjust="spacingAndGlyphs" textLength="123" x="209" y="378.0293">triggerRaidMessage</text><polygon fill="#A80036" points="506,408.082,496,412.082,506,416.082,502,412.082" style="stroke: #A80036; stroke-width: 1.0;"/><polygon fill="#A80036" points="1051.5,408.082,1061.5,412.082,1051.5,416.082,1055.5,412.082" style="stroke: #A80036; stroke-width: 1.0;"/><line style="stroke: #A80036; stroke-width: 1.0;" x1="500" x2="1057.5" y1="412.082" y2="412.082"/><text fill="#000000" font-family="sans-serif" font-size="13" lengthAdjust="spacingAndGlyphs" textLength="110" x="512" y="407.3398">from/to database</text><polygon fill="#A80036" points="951.5,437.3926,961.5,441.3926,951.5,445.3926,955.5,441.3926" style="stroke: #A80036; stroke-width: 1.0;"/><line style="stroke: #A80036; stroke-width: 1.0;" x1="202" x2="957.5" y1="441.3926" y2="441.3926"/><text fill="#000000" font-family="sans-serif" font-size="13" lengthAdjust="spacingAndGlyphs" textLength="148" x="209" y="436.6504">transform to java entity</text><polygon fill="#A80036" points="1051.5,466.7031,1061.5,470.7031,1051.5,474.7031,1055.5,470.7031" style="stroke: #A80036; stroke-width: 1.0;"/><line style="stroke: #A80036; stroke-width: 1.0;" x1="963.5" x2="1057.5" y1="470.7031" y2="470.7031"/><text fill="#000000" font-family="sans-serif" font-size="13" lengthAdjust="spacingAndGlyphs" textLength="76" x="970.5" y="465.9609">To database</text><polygon fill="#A80036" points="579,496.0137,589,500.0137,579,504.0137,583,500.0137" style="stroke: #A80036; stroke-width: 1.0;"/><line style="stroke: #A80036; stroke-width: 1.0;" x1="202" x2="585" y1="500.0137" y2="500.0137"/><text fill="#000000" font-family="sans-serif" font-size="13" lengthAdjust="spacingAndGlyphs" textLength="119" x="209" y="495.2715">triggerEggMessage</text><polygon fill="#A80036" points="602,525.3242,592,529.3242,602,533.3242,598,529.3242" style="stroke: #A80036; stroke-width: 1.0;"/><polygon fill="#A80036" points="1051.5,525.3242,1061.5,529.3242,1051.5,533.3242,1055.5,529.3242" style="stroke: #A80036; stroke-width: 1.0;"/><line style="stroke: #A80036; stroke-width: 1.0;" x1="596" x2="1057.5" y1="529.3242" y2="529.3242"/><text fill="#000000" font-family="sans-serif" font-size="13" lengthAdjust="spacingAndGlyphs" textLength="110" x="608" y="524.582">from/to database</text><!--
@startuml

title "Messages - Webhook - database"

actor Input
boundary "WebhookServer" as Webhook
control "Pokemon Service" as PokemonService
control "Raid Service" as RaidService
control "Egg Service" as EggService
entity PokemonWithSpawnpoint
entity RaidAtGym
entity EggAtGym
database database

Input -> Webhook : incoming json message
Webhook - -> database : transform every incoming message to java entity and write to database
Webhook -> PokemonWithSpawnpoint : transform to java entity
PokemonWithSpawnpoint -> database : To database
Webhook -> PokemonService : triggerPokemonMessage
PokemonService <-> database: from/to database
Webhook -> RaidAtGym : transform to java entity
RaidAtGym -> database: To database
Webhook -> RaidService : triggerRaidMessage
RaidService <-> database: from/to database
Webhook -> EggAtGym : transform to java entity
EggAtGym -> database: To database
Webhook -> EggService : triggerEggMessage
EggService <-> database: from/to database

@enduml

PlantUML version 1.2019.00(Sun Jan 13 16:46:42 CET 2019)
(EPL source distribution)
Java Runtime: Java(TM) SE Runtime Environment
JVM: Java HotSpot(TM) 64-Bit Server VM
Java Version: 1.8.0_202-b08
Operating System: Mac OS X
OS Version: 10.14.4
Default Encoding: UTF-8
Language: de
Country: DE
--></g></svg>